#!OML:ASF E:/inclinewalkrobotboard/Project1/Captureday1/Session1/subject1.ASF
:FULLY-SPECIFIED
:DEGREES
238
root 0 0 0 -3.4257868498649735 3.967384413794111 2.651076380335695
lowerback 11.691188575824462 -0.9669996237606282 -3.7324781416924484
upperback 1.2535334468000183 -1.5472517766536156 1.0711416464535184
thorax -5.169455672394184 -0.667434495704186 3.3661013691071218
lowerneck -17.70655104323715 -2.870584321406887 -2.5080996466314334
upperneck 17.616095622502172 -3.1273241730248102 -0.3457793467384427
head 8.305466085700882 -1.683803443972693 -0.07016030851288124
rclavicle 3.0283830836342123E-15 1.4648981159375564E-15
rhumerus -50.53989336234903 -18.95385210859308 -73.13470751590349
rradius 23.57364683301636
rwrist -1.5700596614919213
rhand -21.4977411219383 27.775235510649942
rfingers 7.125020000000054
rthumb 4.864920779921253 -2.4741315599535163
lclavicle -7.955574357129175E-18 -7.931590416448348E-15
lhumerus -34.89112733564873 -1.6420730081024928 84.1984147755541
lradius 29.03267046448943
lwrist 9.094763139647448
lhand -31.530704313508835 24.57370940087949
lfingers 7.12502000000004
lthumb -4.739624116570692 55.245399650262456
rfemur -29.032439050505573 28.668609288017677 41.7708219367201
rtibia 23.495819712909658
rfoot -8.155487103227674 -13.570066664102065
rtoes -3.6014002865396257
lfemur 2.305004359373612 -4.648686254693693 -22.991010092256538
ltibia 28.18112185336911
lfoot -6.884158655093561 -4.492139812553592
ltoes -9.725950183683894
239
root 0 0 0 -3.433127013877794 3.878172788718846 2.6284929060825117
lowerback 11.698729296815625 -0.9584883159000668 -3.7056194418703914
upperback 1.255214052118566 -1.5340422484478478 1.0765908620654836
thorax -5.174675034421199 -0.6611250141982301 3.3558144546266613
lowerneck -17.70360222535807 -2.87107690663262 -2.499159984624568
upperneck 17.620453349874325 -3.12980824104069 -0.3491541216758698
head 8.305500686802022 -1.6846762580980448 -0.07279502020554629
rclavicle 3.026180179460204E-15 1.4990289838069368E-15
rhumerus -50.556188314116575 -18.968054645771236 -73.24412417392476
rradius 23.53908154507846
rwrist -1.6250473544503663
rhand -21.47097478117415 27.742524075027056
rfingers 7.125020000000054
rthumb 4.890521204095965 -2.504683456801855
lclavicle 2.289075414638869E-17 -7.872400388212186E-15
lhumerus -34.85208882004548 -1.669913844889658 84.24536025157798
lradius 29.054999029157997
lwrist 9.205745324240237
lhand -31.473418630813427 24.62698665986852
lfingers 7.12502000000004
lthumb -4.685590964662811 55.28787325331138
rfemur -28.98494565606373 28.6310013396035 41.76371775122058
rtibia 23.498395738312947
rfoot -8.165976959172195 -13.520140125573072
rtoes -3.537736345546204
lfemur 1.7029006414961927 -4.2822997142784 -22.81389854050144
ltibia 29.979436932050707
lfoot -6.1236933931213855 -5.125670395813312
ltoes -10.160585863261455
240
root 0 0 0 -3.4382273364732114 3.73387158321038 2.5998011729872097
lowerback 11.708766432396274 -0.944452138687077 -3.6666268428832076
upperback 1.2567894567345856 -1.512821189352464 1.0823122442927255
thorax -5.182638407963887 -0.6508852919126471 3.3379902244774935
lowerneck -17.697408156797508 -2.872410913727376 -2.4868573066222868
upperneck 17.62721095147894 -3.134698833137883 -0.35281598181124973
head 8.305077173654462 -1.6865569296337313 -0.0759066011479379
rclavicle 3.046574176857642E-15 1.5424333212309517E-15
rhumerus -50.553248561414634 -18.97176606895348 -73.36039854844786
rradius 23.51437690807377
rwrist -1.6789817714244961
rhand -21.45247510663933 27.716043438227814
rfingers 7.125020000000054
rthumb 4.90822831258259 -2.529770952684345
lclavicle 5.2195688480969326E-17 -7.805817416141114E-15
lhumerus -34.852067768040044 -1.6892302008428803 84.29497315903144
lradius 29.07231532037255
lwrist 9.30702568912783
lhand -31.41609519852767 24.672688985496237
lfingers 7.12502000000004
lthumb -4.631423318533038 55.32236122322701
rfemur -28.914358637073903 28.556174506060103 41.73553997386465
rtibia 23.509384364279736
rfoot -8.197067120885029 -13.450474108382203
rtoes -3.483384624207197
lfemur 0.8002511042828644 -3.783631955664907 -22.603120710236013
ltibia 32.26007768085668
lfoot -5.192660548915139 -5.86592324809558
ltoes -10.712646047937222
241
root 0 0 0 -3.444247439177559 3.534256237531409 2.561087464446997
lowerback 11.722010676423995 -0.9245447708194277 -3.61249603146069
upperback 1.2584940437004715 -1.482690560388354 1.0892012042107262
thorax -5.193513417267827 -0.6363093421099633 3.3118211351115305
lowerneck -17.68870334975704 -2.874889734507925 -2.470851887763177
upperneck 17.637573848536142 -3.142529762057628 -0.35674868266709936
head 8.304958277808634 -1.6896305948456583 -0.07975420322128168
rclavicle 3.1055719806580845E-15 1.614973773346061E-15
rhumerus -50.537517986695796 -18.969365023174163 -73.50645779648758
rradius 23.49071736613382
rwrist -1.73881300796468
rhand -21.435853688308114 27.68850262605539
rfingers 7.125020000000054
rthumb 4.924173207632542 -2.5561013400156387
lclavicle 9.144117362327785E-17 -7.719133485008706E-15
lhumerus -34.887426982285476 -1.7029988246594971 84.35205816844228
lradius 29.083910945913388
lwrist 9.404121706279259
lhand -31.353509969317628 24.712724280867075
lfingers 7.12502000000004
lthumb -4.572119478444883 55.349933231455786
rfemur -28.81793676265201 28.44397031446752 41.690261097802946
rtibia 23.52616507627119
rfoot -8.251287058225138 -13.354209826678758
rtoes -3.4307697892168427
lfemur -0.6257775682091875 -3.0176901441099986 -22.334639287261385
ltibia 35.53580271620244
lfoot -3.9051786122252814 -6.8510110231547365
ltoes -11.520165775937672
242
root 0 0 0 -3.4558716912565544 3.2505734113132405 2.5021608528204897
lowerback 11.74101725845814 -0.895115954228721 -3.5313352473398574
upperback 1.2608472692547608 -1.4376464654523484 1.0988810546678953
thorax -5.208812533263378 -0.6145179567775747 3.271651946970936
lowerneck -17.677061775193273 -2.8795295622342554 -2.4488493117215855
upperneck 17.654763572666205 -3.155580220509956 -0.36082175410815687
head 8.306193335427556 -1.6947761547714597 -0.08495731878801926
rclavicle 3.24025457791788E-15 1.7529861053513115E-15
rhumerus -50.509465397765084 -18.963425436162638 -73.72636065077585
rradius 23.458309825205077
rwrist -1.8178797730062684
rhand -21.413764093176113 27.650407010353412
rfingers 7.125020000000054
rthumb 4.945434065693615 -2.5924340791512073
lclavicle 1.5866432869285537E-16 -7.587789278255735E-15
lhumerus -34.97249081491177 -1.7116589027125926 84.42676967052444
lradius 29.085932170471004
lwrist 9.501421745806418
lhand -31.276902189848546 24.746220147163395
lfingers 7.125020000000039
lthumb -4.499253141308188 55.36808960207792
rfemur -28.677708540367504 28.27246122392941 41.6219061305717
rtibia 23.549562616257276
rfoot -8.343331078261906 -13.209217424506322
rtoes -3.372151025713819
lfemur -3.025624782412649 -1.7233790639137432 -21.927582466618105
ltibia 40.79900681117399
lfoot -1.91367579895919 -8.35180869718754
ltoes -12.822415945197521
